HIERARCHY
ROOT joint_Root
{
	OFFSET 0.0 0.0 0.0
	CHANNELS 6 Xposition Yposition Zposition Zrotation Xrotation Yrotation 
	JOINT Hips
	{
		OFFSET 4.5925 91.4895 -427.239
		CHANNELS 6 Xposition Yposition Zposition Zrotation Xrotation Yrotation 
		JOINT Spine
		{
			OFFSET 15.7357 0.0 0.0
			CHANNELS 6 Xposition Yposition Zposition Zrotation Xrotation Yrotation 
			JOINT Chest
			{
				OFFSET 8.98455 -0.406207 0.0
				CHANNELS 6 Xposition Yposition Zposition Zrotation Xrotation Yrotation 
				JOINT Neck
				{
					OFFSET 16.3773 0.0 0.0
					CHANNELS 6 Xposition Yposition Zposition Zrotation Xrotation Yrotation 
					JOINT Head
					{
						OFFSET 6.45672 0.0 0.0
						CHANNELS 6 Xposition Yposition Zposition Zrotation Xrotation Yrotation 
						End Site
						{
							OFFSET 0.0 0.0 0.0
						}
					}
				}
				JOINT Shoulder_L
				{
					OFFSET 12.9942 -0.242716 4.98039
					CHANNELS 6 Xposition Yposition Zposition Zrotation Xrotation Yrotation 
					JOINT UpperArm_L
					{
						OFFSET 5.34809 0.0 0.0
						CHANNELS 6 Xposition Yposition Zposition Zrotation Xrotation Yrotation 
						JOINT LowerArm_L
						{
							OFFSET 24.3286 1.87007e-05 0.0
							CHANNELS 6 Xposition Yposition Zposition Zrotation Xrotation Yrotation 
							JOINT Hand_L
							{
								OFFSET 22.2916 0.0 0.0
								CHANNELS 6 Xposition Yposition Zposition Zrotation Xrotation Yrotation 
								End Site
								{
									OFFSET 0.0 0.0 0.0
								}
							}
						}
					}
				}
				JOINT Shoulder_R
				{
					OFFSET 12.9945 -0.242716 -4.98039
					CHANNELS 6 Xposition Yposition Zposition Zrotation Xrotation Yrotation 
					JOINT UpperArm_R
					{
						OFFSET -5.34813 0.0 0.0
						CHANNELS 6 Xposition Yposition Zposition Zrotation Xrotation Yrotation 
						JOINT LowerArm_R
						{
							OFFSET -24.3289 0.000322201 0.0
							CHANNELS 6 Xposition Yposition Zposition Zrotation Xrotation Yrotation 
							JOINT Hand_R
							{
								OFFSET -22.2915 -0.000108084 0.0
								CHANNELS 6 Xposition Yposition Zposition Zrotation Xrotation Yrotation 
								End Site
								{
									OFFSET 0.0 0.0 0.0
								}
							}
						}
					}
				}
			}
		}
		JOINT UpperLeg_L
		{
			OFFSET -2.19248 -6.46944 0.0
			CHANNELS 6 Xposition Yposition Zposition Zrotation Xrotation Yrotation 
			JOINT LowerLeg_L
			{
				OFFSET 39.0811 0.0 -1.23785e-05
				CHANNELS 6 Xposition Yposition Zposition Zrotation Xrotation Yrotation 
				JOINT Foot_L
				{
					OFFSET 40.9854 0.0 -1.26872e-05
					CHANNELS 6 Xposition Yposition Zposition Zrotation Xrotation Yrotation 
					JOINT Toes_L
					{
						OFFSET 11.7543 0.0 0.0
						CHANNELS 6 Xposition Yposition Zposition Zrotation Xrotation Yrotation 
						End Site
						{
							OFFSET 0.0 0.0 0.0
						}
					}
				}
			}
		}
		JOINT UpperLeg_R
		{
			OFFSET -2.19251 6.46944 0.0
			CHANNELS 6 Xposition Yposition Zposition Zrotation Xrotation Yrotation 
			JOINT LowerLeg_R
			{
				OFFSET -39.0811 -0.00228153 -0.0401928
				CHANNELS 6 Xposition Yposition Zposition Zrotation Xrotation Yrotation 
				JOINT Foot_R
				{
					OFFSET -40.9854 0.0 0.0
					CHANNELS 6 Xposition Yposition Zposition Zrotation Xrotation Yrotation 
					JOINT Toes_R
					{
						OFFSET -11.7543 0.0 0.0
						CHANNELS 6 Xposition Yposition Zposition Zrotation Xrotation Yrotation 
						End Site
						{
							OFFSET 0.0 0.0 0.0
						}
					}
				}
			}
		}
	}
}
MOTION
Frames:	6
Frame Time:	0.0333333
0.000000 0.000000 0.000000 0.000000 0.000000 -0.000000 -0.994851 92.541800 -0.753951 88.519000 -0.586978 3.075980 15.735700 0.000005 -0.000001 71.199000 87.624500 -70.937400 8.984550 -0.406207 -0.000000 -3.265510 -1.555600 0.479029 16.377300 -0.000001 -0.000001 4.612720 -2.687280 1.880050 6.456720 -0.000001 -0.000000 -1.537010 -1.691190 2.086430 12.994200 -0.242716 4.980390 -83.218400 -11.696100 -59.604000 5.348090 -0.000007 -0.000001 -58.548300 -62.250900 -102.562000 24.328600 0.000019 0.000005 5.234300 4.033250 -52.492200 22.291600 -0.000001 0.000005 15.011700 5.379260 -2.274740 12.994500 -0.242716 -4.980390 95.041600 -11.447000 -66.034000 -5.348130 -0.000001 -0.000004 -45.091400 -65.202500 -85.810100 -24.328900 0.000322 -0.000009 -9.376750 -7.202680 -52.788500 -22.291500 -0.000108 -0.000004 19.556300 5.535690 -8.048420 -2.192480 -6.469440 -0.000000 -174.934000 -11.252100 -3.415750 39.081100 -0.000007 -0.000012 -0.094326 0.244003 21.135300 40.985400 -0.000006 -0.000013 -0.196684 7.445400 -64.620600 11.754300 -0.000000 0.000003 -0.000094 -0.000977 -16.615100 -2.192510 6.469440 -0.000001 177.592000 23.978600 178.547000 -39.081100 -0.002282 -0.040193 0.009164 -0.016547 19.445400 -40.985400 0.000008 0.000006 5.982450 15.320500 -65.629900 -11.754300 -0.000006 -0.000006 -0.002424 -0.033902 -17.951700
0.000000 0.000000 0.000000 0.000000 0.000000 -0.000000 -0.978705 92.549800 -0.953320 88.468100 -0.849776 3.166030 15.735700 0.000005 -0.000001 74.318300 87.484700 -74.046000 8.984550 -0.406207 -0.000000 -2.919680 -1.384590 0.509464 16.377300 -0.000001 -0.000001 4.403710 -2.612310 1.905330 6.456720 -0.000001 -0.000000 -1.573230 -1.563630 2.050170 12.994200 -0.242716 4.980390 -84.048400 -10.463700 -60.143900 5.348090 -0.000007 -0.000001 -51.770400 -60.121300 -92.149500 24.328600 0.000019 0.000005 4.534020 2.708410 -59.229400 22.291600 -0.000001 0.000005 15.614300 5.383800 -2.417930 12.994500 -0.242716 -4.980390 94.386600 -10.266200 -66.712600 -5.348130 -0.000001 -0.000004 -37.943000 -62.603100 -75.722500 -24.328900 0.000322 -0.000009 -9.879190 -6.196710 -58.205800 -22.291500 -0.000108 -0.000004 20.094800 5.526930 -7.662290 -2.192480 -6.469440 -0.000000 -174.900000 -11.419100 -3.471940 39.081100 -0.000007 -0.000012 -0.092573 0.238438 21.218600 40.985400 -0.000006 -0.000013 -0.189816 7.323590 -64.540900 11.754300 -0.000000 0.000003 -0.000095 -0.000982 -16.615300 -2.192510 6.469440 -0.000001 177.539000 24.415400 178.654000 -39.081100 -0.002282 -0.040193 0.004665 -0.003857 19.183700 -40.985400 0.000008 0.000006 5.836850 16.028200 -65.518500 -11.754300 -0.000006 -0.000006 -0.002384 -0.033419 -17.932000
0.000000 0.000000 0.000000 0.000000 0.000000 -0.000000 -0.930085 92.554700 -1.187940 88.489600 -1.228730 3.249270 15.735700 0.000005 -0.000001 76.872900 87.336100 -76.576000 8.984550 -0.406207 -0.000000 -2.574510 -1.236360 0.565932 16.377300 -0.000001 -0.000001 4.071590 -2.237810 1.798190 6.456720 -0.000001 -0.000000 -1.491430 -1.438550 2.027950 12.994200 -0.242716 4.980390 -85.074300 -8.914330 -60.919400 5.348090 -0.000007 -0.000001 -45.241400 -56.608900 -80.783700 24.328600 0.000019 0.000005 4.064130 1.737370 -66.893400 22.291600 -0.000001 0.000005 15.889400 5.380470 -2.312940 12.994500 -0.242716 -4.980390 93.613400 -8.781580 -67.528900 -5.348130 -0.000001 -0.000004 -32.968600 -58.442900 -66.923800 -24.328900 0.000322 -0.000009 -9.817540 -4.728690 -64.527600 -22.291500 -0.000108 -0.000004 20.742100 5.519520 -7.343350 -2.192480 -6.469440 -0.000000 -174.936000 -11.753000 -3.521660 39.081100 -0.000007 -0.000012 -0.092935 0.238715 21.271700 40.985400 -0.000006 -0.000013 -0.154967 7.287360 -64.437500 11.754300 -0.000000 0.000003 -0.000107 -0.001088 -16.619200 -2.192510 6.469440 -0.000001 177.391000 24.499500 178.559000 -39.081100 -0.002282 -0.040193 -0.009722 0.037512 19.174700 -40.985400 0.000008 0.000006 5.215970 16.651700 -65.146200 -11.754300 -0.000006 -0.000006 -0.002504 -0.034862 -17.990800
0.000000 0.000000 0.000000 0.000000 0.000000 -0.000000 -0.876229 92.542000 -1.424470 88.526000 -1.569110 3.376800 15.735700 0.000005 -0.000001 78.199400 87.128100 -77.878300 8.984550 -0.406207 -0.000000 -2.140260 -1.202090 0.619771 16.377300 -0.000001 -0.000001 3.607700 -1.735630 1.572900 6.456720 -0.000001 -0.000000 -1.450400 -1.327540 2.041870 12.994200 -0.242716 4.980390 -86.098700 -7.302420 -61.787100 5.348090 -0.000007 -0.000001 -40.278800 -51.482700 -69.291100 24.328600 0.000019 0.000005 4.807660 1.300390 -74.898800 22.291600 -0.000001 0.000005 16.292300 5.368400 -1.937650 12.994500 -0.242716 -4.980390 92.695500 -6.948270 -68.739000 -5.348130 -0.000001 -0.000004 -29.551000 -53.055400 -58.553300 -24.328900 0.000322 -0.000009 -9.389510 -3.175550 -71.481200 -22.291500 -0.000108 -0.000004 21.507600 5.505950 -6.777990 -2.192480 -6.469440 -0.000000 -174.996000 -12.095300 -3.616600 39.081100 -0.000007 -0.000012 -0.089846 0.228526 21.462600 40.985400 -0.000006 -0.000013 -0.091914 7.266980 -64.387900 11.754300 -0.000000 0.000003 -0.000108 -0.001099 -16.619700 -2.192510 6.469440 -0.000001 177.260000 24.455200 178.394000 -39.081100 -0.002282 -0.040193 -0.022371 0.073206 19.339500 -40.985400 0.000008 0.000006 4.645790 17.028900 -64.838000 -11.754300 -0.000006 -0.000006 -0.002420 -0.033853 -17.949700
0.000000 0.000000 0.000000 0.000000 0.000000 -0.000000 -0.821720 92.524500 -1.676800 88.579300 -1.766410 3.509780 15.735700 0.000005 -0.000001 79.127400 86.896800 -78.802300 8.984550 -0.406207 -0.000000 -1.667740 -1.197160 0.632741 16.377300 -0.000001 -0.000001 3.029460 -1.260940 1.202400 6.456720 -0.000001 -0.000000 -1.458890 -1.295230 2.191460 12.994200 -0.242716 4.980390 -87.198500 -5.583490 -63.304300 5.348090 -0.000007 -0.000001 -36.460300 -44.959000 -57.454400 24.328600 0.000019 0.000005 5.915840 0.853978 -81.806000 22.291600 -0.000001 0.000005 16.893000 5.364260 -1.809550 12.994500 -0.242716 -4.980390 91.609900 -4.546350 -70.484300 -5.348130 -0.000001 -0.000004 -26.345100 -46.715900 -49.553100 -24.328900 0.000322 -0.000009 -9.111630 -1.931050 -78.134000 -22.291500 -0.000108 -0.000004 21.942500 5.499750 -6.523400 -2.192480 -6.469440 -0.000000 -175.072000 -12.311100 -3.734460 39.081100 -0.000007 -0.000012 -0.088782 0.223435 21.670400 40.985400 -0.000006 -0.000013 -0.025227 7.287330 -64.340100 11.754300 -0.000000 0.000003 -0.000108 -0.001102 -16.619800 -2.192510 6.469440 -0.000001 177.151000 24.217700 178.204000 -39.081100 -0.002282 -0.040193 -0.033129 0.102553 19.567100 -40.985400 0.000008 0.000006 4.194510 17.118300 -64.604900 -11.754300 -0.000006 -0.000006 -0.002448 -0.034189 -17.963400
0.000000 0.000000 0.000000 0.000000 0.000000 -0.000000 -0.763827 92.500400 -1.902660 88.627700 -1.880500 3.698600 15.735700 0.000005 -0.000001 78.530000 86.603100 -78.231200 8.984550 -0.406207 -0.000000 -1.104370 -1.373800 0.583972 16.377300 -0.000001 -0.000001 1.937610 -1.201360 1.150440 6.456720 -0.000001 -0.000000 -1.138460 -0.746637 2.047010 12.994200 -0.242716 4.980390 -88.241500 -3.720860 -64.686600 5.348090 -0.000007 -0.000001 -35.036300 -36.958100 -46.695200 24.328600 0.000019 0.000005 6.874790 0.501195 -85.848100 22.291600 -0.000001 0.000005 17.385100 5.370150 -1.991240 12.994500 -0.242716 -4.980390 90.531500 -1.692480 -72.593600 -5.348130 -0.000001 -0.000004 -24.092200 -39.068000 -40.715600 -24.328900 0.000322 -0.000009 -9.232160 -1.099660 -83.261200 -22.291500 -0.000108 -0.000004 22.416000 5.499570 -6.515350 -2.192480 -6.469440 -0.000000 -175.138000 -12.464700 -3.827060 39.081100 -0.000007 -0.000012 -0.086577 0.215087 21.925900 40.985400 -0.000006 -0.000013 0.050945 7.325170 -64.315700 11.754300 -0.000000 0.000003 -0.000110 -0.001119 -16.620400 -2.192510 6.469440 -0.000001 177.010000 24.069700 178.094000 -39.081100 -0.002282 -0.040193 -0.043742 0.130747 19.797000 -40.985400 0.000008 0.000006 3.662210 17.199500 -64.360400 -11.754300 -0.000006 -0.000006 -0.002260 -0.031927 -17.871400
